<svg width="14" height="14" viewBox="0 0 14 14" fill="none" xmlns="http://www.w3.org/2000/svg">
<path d="M4.16813 0.125C1.94875 0.125 0.125 1.94625 0.125 4.16813V9.83187C0.125 12.0513 1.94625 13.875 4.16813 13.875H9.83187C12.0513 13.875 13.875 12.0538 13.875 9.83187V4.16875C13.875 1.94875 12.0538 0.125 9.83187 0.125H4.16813ZM4.16813 1.375H9.83187C10.1988 1.37451 10.5622 1.44642 10.9013 1.58661C11.2404 1.7268 11.5485 1.93252 11.808 2.19199C12.0675 2.45145 12.2732 2.75956 12.4134 3.09866C12.5536 3.43776 12.6255 3.80119 12.625 4.16813V9.83187C12.6255 10.1988 12.5536 10.5622 12.4134 10.9013C12.2732 11.2404 12.0675 11.5485 11.808 11.808C11.5485 12.0675 11.2404 12.2732 10.9013 12.4134C10.5622 12.5536 10.1988 12.6255 9.83187 12.625H4.16875C3.80176 12.6256 3.43826 12.5537 3.09909 12.4136C2.75992 12.2734 2.45174 12.0677 2.19221 11.8082C1.93268 11.5488 1.7269 11.2406 1.58667 10.9015C1.44644 10.5623 1.37451 10.1989 1.375 9.83187V4.16875C1.37442 3.80176 1.44627 3.43826 1.58643 3.09909C1.72658 2.75992 1.93229 2.45174 2.19176 2.19221C2.45124 1.93268 2.75937 1.7269 3.09851 1.58667C3.43765 1.44644 3.80114 1.37451 4.16813 1.375ZM10.6912 2.7425C10.6168 2.74217 10.543 2.75659 10.4742 2.78493C10.4053 2.81327 10.3428 2.85497 10.2901 2.90761C10.2375 2.96026 10.1958 3.02281 10.1674 3.09166C10.1391 3.16051 10.1247 3.2343 10.125 3.30875C10.125 3.62375 10.3763 3.875 10.6912 3.875C10.7658 3.87541 10.8396 3.86105 10.9085 3.83275C10.9775 3.80445 11.0401 3.76277 11.0928 3.71011C11.1455 3.65745 11.1873 3.59487 11.2156 3.52598C11.244 3.45709 11.2585 3.38326 11.2581 3.30875C11.2585 3.23424 11.244 3.16041 11.2156 3.09152C11.1873 3.02263 11.1455 2.96005 11.0928 2.90739C11.0401 2.85473 10.9775 2.81305 10.9085 2.78475C10.8396 2.75645 10.7658 2.74209 10.6912 2.7425ZM7 3.25C4.9375 3.25 3.25 4.9375 3.25 7C3.25 9.0625 4.9375 10.75 7 10.75C9.0625 10.75 10.75 9.0625 10.75 7C10.75 4.9375 9.0625 3.25 7 3.25ZM7 4.5C8.38937 4.5 9.5 5.61062 9.5 7C9.5 8.38937 8.38937 9.5 7 9.5C5.61062 9.5 4.5 8.38937 4.5 7C4.5 5.61062 5.61062 4.5 7 4.5Z" fill="white"/>
</svg>
