<svg width="16" height="14" viewBox="0 0 16 14" fill="none" xmlns="http://www.w3.org/2000/svg">
<path d="M15.5 2.34939C14.9383 2.59803 14.3425 2.76088 13.7325 2.83251C14.3747 2.44794 14.8554 1.84313 15.085 1.13064C14.481 1.4886 13.8205 1.74136 13.1319 1.87814C12.71 1.42711 12.1621 1.11345 11.5596 0.977942C10.9571 0.842439 10.3277 0.891359 9.7533 1.11834C9.17893 1.34533 8.68614 1.73987 8.33901 2.25068C7.99188 2.76148 7.80646 3.36492 7.80688 3.98251C7.80688 4.22439 7.83375 4.45876 7.88812 4.68314C6.66407 4.62289 5.46645 4.30539 4.3733 3.75133C3.28016 3.19728 2.31603 2.4191 1.54375 1.46751C1.26936 1.9372 1.12544 2.47167 1.12687 3.01564C1.12687 4.08251 1.66875 5.02501 2.49625 5.57689C2.00747 5.56138 1.52954 5.42893 1.1025 5.19064V5.23001C1.10208 5.94074 1.34777 6.6297 1.79782 7.17979C2.24787 7.72987 2.87451 8.10716 3.57125 8.24751C3.11817 8.37177 2.64258 8.39016 2.18125 8.30126C2.37776 8.9127 2.76034 9.4475 3.27555 9.83094C3.79077 10.2144 4.41288 10.4273 5.055 10.44C4.41665 10.9411 3.68576 11.3113 2.90415 11.5295C2.12255 11.7478 1.30558 11.8097 0.5 11.7119C1.90658 12.6171 3.54421 13.0977 5.21688 13.0963C10.8781 13.0963 13.9744 8.40626 13.9744 4.33876C13.9744 4.20751 13.9694 4.07251 13.9644 3.94064C14.566 3.50504 15.0858 2.96655 15.5 2.35001V2.34939Z" fill="white"/>
</svg>
