<svg width="16" height="12" viewBox="0 0 16 12" fill="none" xmlns="http://www.w3.org/2000/svg">
<path d="M8.0515 0.399994H8.14051C8.96256 0.402983 13.1278 0.43288 14.2509 0.733832C14.5904 0.82568 14.8998 1.00471 15.1481 1.25303C15.3964 1.50135 15.575 1.81027 15.666 2.1489C15.767 2.52759 15.838 3.02884 15.886 3.54604L15.896 3.64968L15.918 3.90878L15.926 4.01242C15.991 4.92324 15.999 5.77627 16 5.96262V6.03736C15.999 6.23069 15.99 7.14152 15.918 8.09022L15.91 8.19485L15.901 8.29849C15.851 8.86851 15.777 9.43454 15.666 9.85108C15.5753 10.1899 15.3968 10.4989 15.1484 10.7473C14.9001 10.9956 14.5905 11.1746 14.2509 11.2662C13.0908 11.5771 8.68154 11.599 8.07051 11.6H7.9285C7.61948 11.6 6.3414 11.594 5.00131 11.5482L4.8313 11.5422L4.7443 11.5382L4.57329 11.5312L4.40228 11.5243C3.29221 11.4754 2.23514 11.3967 1.74811 11.2652C1.40858 11.1737 1.09913 10.9949 0.850778 10.7467C0.602421 10.4985 0.423873 10.1897 0.333021 9.85108C0.222014 9.43553 0.148009 8.86851 0.0980061 8.29849L0.0900056 8.19385L0.0820051 8.09022C0.0326496 7.41497 0.0053002 6.7383 0 6.06128L0 5.93871C0.00200013 5.72445 0.0100006 4.98403 0.064004 4.16688L0.0710044 4.06423L0.0740046 4.01242L0.0820051 3.90878L0.104007 3.64968L0.114007 3.54604C0.16201 3.02884 0.233015 2.52659 0.334021 2.1489C0.42472 1.81013 0.6032 1.50107 0.851566 1.25271C1.09993 1.00434 1.40946 0.825405 1.74911 0.733832C2.23614 0.604283 3.29321 0.52456 4.40328 0.474734L4.57329 0.467758L4.7453 0.461779L4.8313 0.458789L5.00231 0.451814C5.95408 0.421294 6.90624 0.404352 7.85849 0.40099H8.0515V0.399994ZM6.4004 3.59886V8.40014L10.5577 6.00049L6.4004 3.59886Z" fill="white"/>
</svg>
