<svg width="206" height="10" viewBox="0 0 206 10" fill="none" xmlns="http://www.w3.org/2000/svg" style="margin-left: 20px;">
<g opacity="0.1">
<path d="M2.24937 3.95326H6.64001V0.18457H8.24901V9.78688H6.64001V5.39122H2.24937V9.78688H0.57901V0.18457H2.24937V3.95326Z" fill="#222222"/>
<path d="M127.58 3.99329H131.957V0.224609H133.559V9.82692H131.957V5.43126H127.58V9.82692H125.951V0.224609H127.614L127.58 3.99329Z" fill="#222222"/>
<path d="M11.9373 9.82777L15.1621 0.18457H17.1597L20.3982 9.82777H18.7687L18.1551 8.02862H14.2213L13.6418 9.82777H11.9373ZM17.6643 6.65199L16.1439 2.13366L14.719 6.65199H17.6643Z" fill="#222222"/>
<path d="M25.968 6.04539C25.9545 6.69296 26.183 7.32229 26.6088 7.81047C26.7962 8.0462 27.0347 8.23621 27.3064 8.36609C27.5781 8.49597 27.8758 8.56233 28.1769 8.56012C28.5042 8.57228 28.8288 8.49728 29.1175 8.34281C29.4062 8.18833 29.6486 7.95993 29.82 7.68099C30.1328 7.19356 30.2942 6.6244 30.2836 6.04539V0.164062H31.8653V6.29755C31.8746 6.78605 31.7852 7.27141 31.6024 7.72456C31.4196 8.17771 31.1473 8.58935 30.8017 8.93483C30.456 9.28032 30.0442 9.55256 29.5909 9.73525C29.1376 9.91795 28.652 10.0073 28.1633 9.99808C27.6623 10.0131 27.1634 9.9287 26.6953 9.74973C26.2272 9.57075 25.7992 9.30077 25.4362 8.95539C25.0853 8.6149 24.8089 8.20526 24.6247 7.75243C24.4404 7.29961 24.3523 6.81347 24.3658 6.32481V0.191323H25.9816L25.968 6.04539Z" fill="#222222"/>
<path d="M39.802 1.44519C39.3607 1.41518 38.9239 1.54861 38.5748 1.82002C38.4341 1.93943 38.3224 2.08916 38.248 2.25796C38.1736 2.42676 38.1385 2.61023 38.1453 2.79456C38.1453 3.39428 38.5816 3.79636 39.4475 3.98036L41.5541 4.43697C42.1025 4.54171 42.601 4.82437 42.9722 5.24114C43.352 5.67439 43.5584 6.23257 43.5518 6.80858C43.5638 7.23529 43.4836 7.65958 43.3165 8.05243C43.1494 8.44528 42.8994 8.79743 42.5836 9.08479C41.886 9.7005 40.9773 10.0228 40.0474 9.98436C39.3457 10.0107 38.647 9.88028 38.0021 9.60273C37.3306 9.238 36.7301 8.75555 36.2295 8.1784L37.4635 7.14252C37.7724 7.53871 38.1618 7.865 38.606 8.09993C39.0502 8.33485 39.5391 8.47308 40.0406 8.50551C41.336 8.50551 41.9905 8.07617 41.9905 7.21067C41.9905 6.52917 41.5882 6.12027 40.7974 5.94989L38.8407 5.53418C38.1869 5.40212 37.5976 5.05114 37.1703 4.53919C36.7696 4.07836 36.5513 3.48691 36.5567 2.87634C36.5462 2.48693 36.6249 2.10029 36.7868 1.74594C36.9487 1.3916 37.1895 1.07893 37.4907 0.831843C38.2103 0.28791 39.0988 0.015203 39.9997 0.0617491C40.4604 0.0792701 40.9177 0.147842 41.3632 0.266201C41.778 0.345105 42.1728 0.506389 42.5241 0.740507C42.8754 0.974625 43.1762 1.27682 43.4086 1.6292L42.0928 2.56966C41.8359 2.20524 41.4915 1.91125 41.0911 1.71475C40.6908 1.51825 40.2475 1.42555 39.802 1.44519Z" fill="#222222"/>
<path d="M49.7551 4.13715H53.8458V5.57512H49.8097V8.30111H54.4662V9.78678H48.112V0.150391H54.1867V1.58154H49.7278L49.7551 4.13715Z" fill="#222222"/>
<path d="M64.3729 9.78754L62.4162 6.02566H60.6845V9.78754H59.0824V0.246557H62.5458C62.9977 0.218193 63.4505 0.285479 63.8746 0.444016C64.2987 0.602553 64.6846 0.848774 65.007 1.16658C65.5258 1.75299 65.7971 2.51756 65.7638 3.29967C65.7501 3.67793 65.6812 4.05217 65.5592 4.41051C65.4559 4.75501 65.2655 5.06707 65.0063 5.31657C64.7472 5.56606 64.4281 5.74456 64.0798 5.83484L66.0774 9.80116L64.3729 9.78754ZM62.6003 4.58089C63.7048 4.58089 64.2502 4.10384 64.2502 3.14974C64.2646 2.9442 64.2323 2.73807 64.1555 2.54685C64.0787 2.35563 63.9596 2.18429 63.8071 2.04571C63.4776 1.77595 63.0599 1.63759 62.6344 1.65726H60.6845V4.58089H62.6003Z" fill="#222222"/>
<path d="M85.5011 9.82769L83.1558 0.164043H84.8739L86.517 6.51561L87.9691 0.157227H89.8713L91.4258 6.51561L92.9598 0.157227H94.6369L92.4212 9.82087H90.594L88.9304 2.71285L87.3351 9.82769H85.5011Z" fill="#222222"/>
<path d="M100.29 9.82775H98.6124V0.177734H100.29V9.82775Z" fill="#222222"/>
<path d="M110.522 9.78754L108.559 6.02566H106.861V9.78754H105.225V0.246557H108.681C109.133 0.218193 109.586 0.285479 110.01 0.444016C110.434 0.602553 110.82 0.848774 111.143 1.16658C111.666 1.75044 111.94 2.51618 111.906 3.29967C111.887 3.6779 111.816 4.05169 111.695 4.41051C111.597 4.75559 111.41 5.06886 111.153 5.31886C110.895 5.56887 110.577 5.74682 110.229 5.83484L112.227 9.80116L110.522 9.78754ZM108.743 4.58089C109.847 4.58089 110.399 4.10384 110.399 3.14974C110.413 2.94367 110.38 2.7372 110.302 2.54594C110.224 2.35469 110.103 2.18364 109.949 2.04571C109.622 1.77698 109.207 1.63864 108.784 1.65726H106.861V4.58089H108.743Z" fill="#222222"/>
<path d="M122.168 1.70348H119.536V9.78605H117.927V1.70348H115.282V0.231445H122.168V1.70348Z" fill="#222222"/>
<path d="M76.9862 5.27519H78.3498C78.2937 6.09953 77.9814 6.88578 77.4566 7.52414C77.6008 7.66432 77.7941 7.74259 77.9953 7.74222L78.5066 7.68088L78.6566 8.90076C78.4031 8.98264 78.1389 9.02628 77.8725 9.03025C77.6074 9.0391 77.3432 8.99508 77.0953 8.90076C76.874 8.78434 76.6717 8.63498 76.4953 8.45779C76.1862 8.6595 75.8544 8.82419 75.5068 8.94847C75.2438 9.01372 74.973 9.04126 74.7023 9.03025C73.9929 9.01194 73.317 8.7253 72.8108 8.2282C72.3046 7.73111 72.006 7.06058 71.9752 6.35196C71.9937 6.05279 72.051 5.75728 72.1456 5.47283C72.248 5.17487 72.4095 4.9006 72.6203 4.66642C72.8312 4.43223 73.0871 4.24293 73.3728 4.10983C73.0177 3.7064 72.8321 3.18151 72.8546 2.64461C72.8623 2.15075 73.0572 1.67821 73.4001 1.3225C73.5663 1.12217 73.7747 0.960903 74.0104 0.850183C74.246 0.739463 74.5032 0.682003 74.7636 0.681893C75.0229 0.672587 75.2813 0.716203 75.5232 0.810077C75.765 0.903951 75.9852 1.04611 76.1702 1.22788C76.3552 1.40965 76.5013 1.62721 76.5994 1.86728C76.6975 2.10735 76.7456 2.36489 76.7408 2.62417C76.7214 2.8818 76.6616 3.13478 76.5635 3.37381C76.3204 3.93309 75.8712 4.37728 75.309 4.61414L76.6726 6.40648C76.7349 6.31443 76.7918 6.21886 76.843 6.12025C76.9376 5.84853 76.986 5.56289 76.9862 5.27519ZM73.2092 6.26336C73.214 6.45283 73.2562 6.63948 73.3334 6.81257C73.4107 6.98567 73.5214 7.1418 73.6591 7.27198C73.78 7.41551 73.9301 7.53167 74.0994 7.61275C74.2687 7.69382 74.4533 7.73796 74.6409 7.74222C74.7625 7.7371 74.8835 7.72113 75.0023 7.69451C75.2464 7.63581 75.4672 7.50524 75.6363 7.31969L74.0137 5.04348C73.7776 5.14953 73.5765 5.32055 73.4341 5.53657C73.2916 5.75259 73.2136 6.00467 73.2092 6.26336ZM74.8659 1.86089C74.3818 1.86089 74.1432 2.1403 74.1432 2.69231C74.1496 3.00778 74.2652 3.31127 74.4705 3.551C74.7113 3.4762 74.9309 3.34541 75.1113 3.16936C75.2124 3.09316 75.2967 2.99694 75.3588 2.88672C75.421 2.77649 75.4598 2.65463 75.4727 2.52876C75.5 2.08578 75.2681 1.86089 74.8659 1.86089Z" fill="#222222"/>
<path d="M147.074 9.9208C149.224 9.9208 150.796 8.6807 150.796 6.88945C150.796 5.51156 149.872 4.60215 148.232 4.28524L146.716 3.99588C145.889 3.84431 145.048 3.58251 145.048 2.67311C145.048 2.03928 145.654 1.43301 146.909 1.43301C147.86 1.43301 148.756 1.72236 149.348 2.30107L150.617 1.309C149.734 0.385809 148.342 0 146.978 0C144.441 0 143.297 1.44678 143.297 2.81089C143.297 4.36791 144.386 5.2222 145.889 5.49778L147.529 5.80091C148.411 5.96626 149.018 6.29695 149.018 7.09613C149.018 7.81263 148.384 8.4878 147.06 8.4878C145.944 8.4878 144.855 7.97798 144.207 7.15125L142.939 8.18466C143.724 9.21808 145.254 9.9208 147.074 9.9208Z" fill="#222222"/>
<path d="M154.473 9.78302H156.127V5.58045H160.676V9.78302H162.33V0.137789H160.676V4.10611H156.127V0.137789H154.473V9.78302Z" fill="#222222"/>
<path d="M167.795 4.9604C167.795 3.05891 168.801 1.43301 170.607 1.43301C172.427 1.43301 173.433 3.03136 173.433 4.9604C173.433 6.87567 172.427 8.4878 170.607 8.4878C168.801 8.4878 167.795 6.86189 167.795 4.9604ZM175.142 4.9604C175.142 2.19084 173.419 0 170.607 0C167.809 0 166.086 2.19084 166.086 4.9604C166.086 7.72996 167.809 9.9208 170.607 9.9208C173.419 9.9208 175.142 7.72996 175.142 4.9604Z" fill="#222222"/>
<path d="M180.549 9.78302V6.37963H182.451C184.574 6.37963 185.842 5.0293 185.842 3.2656C185.842 1.48812 184.574 0.137789 182.451 0.137789H178.895V9.78302H180.549ZM180.549 4.98796V1.52946H182.313C183.485 1.52946 184.147 2.31485 184.147 3.2656C184.147 4.21634 183.485 4.98796 182.313 4.98796H180.549Z" fill="#222222"/>
</g>
</svg>
